HIERARCHY
ROOT Hips
{
	OFFSET 0.000000 0.000000 0.000000
	CHANNELS 6 Xposition Yposition Zposition Xrotation Yrotation Zrotation
	JOINT LeftUpLeg_virtual
	{
		OFFSET 0.000000 0.000000 0.000000
		CHANNELS 3 Xrotation Yrotation Zrotation
		JOINT LeftUpLeg
		{
			OFFSET 15.427100 -6.655098 0.678600
			CHANNELS 3 Xrotation Yrotation Zrotation
			JOINT LeftLeg
			{
				OFFSET 4.081073 -39.591068 13.024000
				CHANNELS 3 Xrotation Yrotation Zrotation
				JOINT LeftFoot
				{
					OFFSET -4.081074 -37.707932 -15.979700
					CHANNELS 3 Xrotation Yrotation Zrotation
					JOINT LeftToeBase
					{
						OFFSET 5.346399 -15.068900 20.645000
						CHANNELS 3 Xrotation Yrotation Zrotation
						JOINT LeftToe_End
						{
							OFFSET 2.754700 0.931300 11.300900
							CHANNELS 3 Xrotation Yrotation Zrotation
							End Site
							{
								OFFSET 0 0 0
							}
						}
					}
				}
			}
		}
	}
	JOINT RightUpLeg_virtual
	{
		OFFSET 0.000000 0.000000 0.000000
		CHANNELS 3 Xrotation Yrotation Zrotation
		JOINT RightUpLeg
		{
			OFFSET -15.569500 -6.655098 0.678600
			CHANNELS 3 Xrotation Yrotation Zrotation
			JOINT RightLeg
			{
				OFFSET -4.081825 -39.591045 13.023800
				CHANNELS 3 Xrotation Yrotation Zrotation
				JOINT RightFoot
				{
					OFFSET 4.081824 -37.707954 -15.979600
					CHANNELS 3 Xrotation Yrotation Zrotation
					JOINT RightToeBase
					{
						OFFSET -5.346400 -15.068900 20.645000
						CHANNELS 3 Xrotation Yrotation Zrotation
						JOINT RightToe_End
						{
							OFFSET -2.754700 0.931300 11.300900
							CHANNELS 3 Xrotation Yrotation Zrotation
							End Site
							{
								OFFSET 0 0 0
							}
						}
					}
				}
			}
		}
	}
	JOINT Spine_virtual
	{
		OFFSET 0.000000 0.000000 0.000000
		CHANNELS 3 Xrotation Yrotation Zrotation
		JOINT Spine
		{
			OFFSET -0.279200 12.230698 -2.892100
			CHANNELS 3 Xrotation Yrotation Zrotation
			JOINT Spine1
			{
				OFFSET -0.232667 10.192268 -1.242267
				CHANNELS 3 Xrotation Yrotation Zrotation
				JOINT Spine1_split
				{
					OFFSET -0.232667 10.192268 -1.242267
					CHANNELS 3 Xrotation Yrotation Zrotation
					JOINT Spine2
					{
						OFFSET -0.232667 10.192268 -1.242267
						CHANNELS 3 Xrotation Yrotation Zrotation
						JOINT Neck_virtual
						{
							OFFSET 0.000000 0.000000 0.000000
							CHANNELS 3 Xrotation Yrotation Zrotation
							JOINT Neck
							{
								OFFSET -0.418800 17.814194 8.416900
								CHANNELS 3 Xrotation Yrotation Zrotation
								JOINT Head
								{
									OFFSET 0.000000 7.031097 3.806800
									CHANNELS 3 Xrotation Yrotation Zrotation
									JOINT HeadTop_End
									{
										OFFSET 0.000000 24.646606 12.978600
										CHANNELS 3 Xrotation Yrotation Zrotation
										End Site
										{
											OFFSET 0 0 0
										}
									}
								}
							}
						}
						JOINT LeftShoulder_virtual
						{
							OFFSET 0.000000 0.000000 0.000000
							CHANNELS 3 Xrotation Yrotation Zrotation
							JOINT LeftShoulder
							{
								OFFSET 8.476499 7.247704 -3.868750
								CHANNELS 3 Xrotation Yrotation Zrotation
								JOINT LeftShoulder_split
								{
									OFFSET 8.476499 7.247704 -3.868750
									CHANNELS 3 Xrotation Yrotation Zrotation
									JOINT LeftArm
									{
										OFFSET 9.308998 -2.777710 0.208600
										CHANNELS 3 Xrotation Yrotation Zrotation
										JOINT LeftForeArm
										{
											OFFSET 29.972298 0.000000 0.000000
											CHANNELS 3 Xrotation Yrotation Zrotation
											JOINT LeftHand
											{
												OFFSET 26.026505 0.000000 0.000000
												CHANNELS 3 Xrotation Yrotation Zrotation
												End Site
												{
													OFFSET 0 0 0
												}
											}
										}
									}
								}
							}
						}
						JOINT RightShoulder_virtual
						{
							OFFSET 0.000000 0.000000 0.000000
							CHANNELS 3 Xrotation Yrotation Zrotation
							JOINT RightShoulder
							{
								OFFSET -7.570500 7.247704 -3.868750
								CHANNELS 3 Xrotation Yrotation Zrotation
								JOINT RightShoulder_split
								{
									OFFSET -7.570500 7.247704 -3.868750
									CHANNELS 3 Xrotation Yrotation Zrotation
									JOINT RightArm
									{
										OFFSET -9.308998 -2.777710 0.208500
										CHANNELS 3 Xrotation Yrotation Zrotation
										JOINT RightForeArm
										{
											OFFSET -29.972300 0.000000 0.000000
											CHANNELS 3 Xrotation Yrotation Zrotation
											JOINT RightHand
											{
												OFFSET -26.026505 0.000000 0.000000
												CHANNELS 3 Xrotation Yrotation Zrotation
												End Site
												{
													OFFSET 0 0 0
												}
											}
										}
									}
								}
							}
						}
					}
				}
			}
		}
	}
}
MOTION
Frames: 11
Frame Time: 0.03333333
-3.802814 74.922401 26.072357 0.000000 0.000000 0.000000 5.846725 -49.933539 5.461776 8.436911 6.840262 -7.203911 36.095829 1.478054 -9.435628 -38.967834 -10.090990 18.085916 -3.237759 -11.360147 -2.408983 0.000000 0.000000 0.000000 4.803276 -49.223421 4.832670 -56.608000 -1.735014 5.149655 19.352564 2.869433 -2.906021 28.225378 6.641665 11.024094 5.577651 -0.483290 2.233921 0.000000 0.000000 0.000000 3.345721 -43.739630 3.936701 14.524455 -7.778122 1.474112 5.288864 -5.816506 2.297028 -0.532734 -2.035242 0.791484 0.000000 0.000000 0.000000 -3.014477 -5.227136 1.456409 1.932264 39.579485 -10.642600 0.977955 27.018857 -6.839564 0.000000 0.000000 0.000000 -1.864657 -6.483155 1.867012 1.221163 -3.318339 -2.613111 -0.069015 2.787787 -3.230063 -0.765220 -3.880902 -28.002939 -0.703916 -26.257694 -2.126443 0.000000 0.000000 0.000000 -3.509255 -6.160080 2.494679 9.721158 -12.317325 2.585464 0.823833 4.042166 -0.641204 2.007428 5.600474 78.097032 -6.549304 11.441337 6.284904 0.000000 0.000000 0.000000 
-1.928510 75.688499 23.435570 0.000000 0.000000 0.000000 6.298002 -53.848283 5.784704 5.964726 6.857731 -9.378762 35.364121 2.062926 -8.272338 -38.610274 -11.345237 18.008980 -2.120248 -12.145059 -0.634692 0.000000 0.000000 0.000000 4.378093 -51.796101 4.742086 -54.552396 -2.716426 5.135603 22.462021 2.768843 -3.129536 25.695264 6.412288 9.473072 8.703672 0.018021 2.458945 0.000000 0.000000 0.000000 3.240239 -47.141733 3.902250 14.590404 -7.090891 1.162472 4.449318 -5.288196 2.275197 -0.380990 -1.901530 0.648451 0.000000 0.000000 0.000000 -3.975039 -4.580146 1.466928 2.271827 39.961794 -10.993051 1.721107 26.917267 -7.689412 0.000000 0.000000 0.000000 -2.699611 -5.858297 2.035899 1.003038 -2.215965 -2.371851 1.642984 3.938978 -3.608056 -5.830760 -5.219879 -28.674493 -0.214046 -31.135356 -2.197067 0.000000 0.000000 0.000000 -4.426121 -5.672777 2.474885 10.266259 -11.384126 2.543606 0.006733 4.997126 -1.291332 3.885545 11.121704 74.637596 -5.046332 15.040695 7.802402 0.000000 0.000000 0.000000 
-0.205057 76.535828 20.853909 0.000000 0.000000 0.000000 7.402083 -57.311311 6.663092 3.144396 7.830940 -10.832442 36.212768 3.654138 -7.201223 -38.342752 -11.425067 17.531275 -0.674781 -12.928139 0.393304 0.000000 0.000000 0.000000 4.196330 -54.363197 4.833540 -53.114707 -3.175484 4.874474 26.162509 3.027309 -3.329777 24.865739 6.514981 8.675223 9.507232 0.363412 2.717767 0.000000 0.000000 0.000000 3.135871 -50.324960 3.950154 14.993898 -6.243911 1.219436 3.756604 -4.647113 2.217603 -0.032354 -1.830164 0.841851 0.000000 0.000000 0.000000 -4.794080 -3.906603 1.456774 3.314345 40.162581 -11.762084 1.976615 26.531848 -8.359307 0.000000 0.000000 0.000000 -3.266682 -5.145614 2.075286 0.889137 -1.291450 -2.538757 3.430702 4.466901 -3.361589 -9.148409 -6.309599 -29.377030 -0.365122 -35.166663 -2.521215 0.000000 0.000000 0.000000 -5.048231 -5.030934 2.356257 10.639477 -10.161144 3.160305 -0.681125 5.355497 -1.865317 6.093865 14.540667 70.565300 -3.087016 19.735903 9.015171 0.000000 0.000000 0.000000 
1.325217 77.782356 18.368158 0.000000 0.000000 0.000000 8.354917 -60.362309 7.595174 0.327688 8.947217 -11.757354 37.142463 5.904459 -5.953893 -38.075313 -9.842402 16.122404 3.410815 -13.521801 0.941346 0.000000 0.000000 0.000000 3.897944 -56.923985 4.814910 -51.819050 -3.162104 4.284694 29.346755 3.367366 -3.626955 24.667083 6.612655 8.275298 8.605228 0.564333 3.136531 0.000000 0.000000 0.000000 2.667959 -53.057104 3.780211 15.604255 -5.248617 1.547215 3.179425 -3.877266 2.042027 -0.024886 -2.192275 0.963010 0.000000 0.000000 0.000000 -5.386976 -3.200022 1.365183 4.953890 40.196042 -12.727824 1.972687 25.934126 -8.924512 0.000000 0.000000 0.000000 -3.608701 -4.367544 1.916397 0.858027 -0.578450 -3.193333 4.900420 4.308252 -2.708175 -10.784860 -7.433030 -29.887480 -1.254250 -38.819448 -3.149052 0.000000 0.000000 0.000000 -5.387999 -4.278457 2.079282 10.767119 -8.757815 4.306988 -1.013058 5.063141 -2.637474 7.541759 15.619659 66.192675 -0.898427 24.690173 9.684186 0.000000 0.000000 0.000000 
2.627186 79.416817 15.950405 0.000000 0.000000 0.000000 8.772464 -62.917920 8.179279 -1.813162 9.692468 -12.278891 36.513635 7.951959 -4.385967 -37.483047 -7.526366 13.530314 5.610070 -14.209130 2.645802 0.000000 0.000000 0.000000 3.668309 -59.266214 4.718079 -50.362799 -2.682143 3.309674 31.754711 3.366387 -4.100747 23.930090 6.268555 7.656403 7.553542 0.687364 3.599349 0.000000 0.000000 0.000000 2.009264 -55.286700 3.315020 16.226352 -4.202433 1.988475 2.720465 -3.050147 1.707559 -0.193333 -2.578132 0.915900 0.000000 0.000000 0.000000 -5.616340 -2.473404 1.177349 7.012481 40.031411 -13.662051 1.896189 25.268153 -9.467208 0.000000 0.000000 0.000000 -3.787067 -3.570250 1.584408 0.895693 -0.026118 -4.238913 5.826251 3.639028 -1.830923 -10.875808 -8.380384 -30.115475 -2.818549 -43.037917 -4.139779 0.000000 0.000000 0.000000 -5.537607 -3.484125 1.673845 10.660751 -7.333204 5.757103 -1.009011 4.104051 -3.361192 7.605423 15.076222 62.268424 1.371136 29.474759 9.715737 0.000000 0.000000 0.000000 
3.718508 81.198601 13.415428 0.000000 0.000000 0.000000 8.803358 -64.847776 8.342611 -2.590474 10.084968 -12.410245 33.989849 9.878929 -2.606842 -36.643979 -5.852691 11.751483 3.692577 -15.429594 5.964954 0.000000 0.000000 0.000000 3.590941 -61.284753 4.593211 -48.681822 -1.672906 1.776763 33.779104 3.096955 -4.596436 22.426469 5.632888 6.936680 7.270074 0.824084 3.906439 0.000000 0.000000 0.000000 1.288323 -57.147537 2.613214 16.603007 -3.198169 2.375807 2.385087 -2.233643 1.256626 -0.538010 -3.342768 0.836519 0.000000 0.000000 0.000000 -5.543327 -1.779743 0.939864 9.206127 39.733683 -14.348009 1.797709 24.836678 -10.028806 0.000000 0.000000 0.000000 -3.907812 -2.793838 1.166404 0.981377 0.561405 -5.289044 6.384772 3.084949 -0.995636 -10.276785 -8.944012 -30.331648 -4.664577 -47.706675 -5.372644 0.000000 0.000000 0.000000 -5.569436 -2.722094 1.226561 10.365369 -6.028601 7.260087 -0.714681 2.882832 -3.762170 6.432623 13.998617 59.257048 3.544654 33.828988 9.191358 0.000000 0.000000 0.000000 
4.573621 82.898438 10.815098 0.000000 0.000000 0.000000 8.478555 -66.127815 8.011467 -3.469735 9.933539 -11.925394 32.023882 11.306252 -0.981520 -34.333008 -4.999153 10.717456 2.622693 -16.922892 8.252978 0.000000 0.000000 0.000000 3.727912 -63.024218 4.547518 -46.696371 -0.200277 -0.393203 35.682004 2.956979 -5.132221 20.194913 5.345577 6.955983 7.271436 0.972713 3.863615 0.000000 0.000000 0.000000 0.798156 -58.657446 1.936247 16.642948 -2.330624 2.574397 2.247402 -1.517316 0.778996 -0.858898 -4.270812 0.603230 0.000000 0.000000 0.000000 -5.282078 -1.172327 0.733368 11.157863 39.340725 -14.603745 1.698573 24.968214 -10.622943 0.000000 0.000000 0.000000 -4.025853 -2.110206 0.740046 1.107862 1.251220 -6.037645 6.405195 2.891525 -0.667893 -9.496742 -8.814777 -30.862917 -6.264962 -52.272834 -6.575044 0.000000 0.000000 0.000000 -5.580539 -2.086586 0.856387 9.973751 -4.977826 8.513617 -0.082706 1.580405 -3.692568 4.606158 13.417643 57.275057 5.402252 37.441939 8.293300 0.000000 0.000000 0.000000 
5.334062 84.177063 8.137600 0.000000 0.000000 0.000000 8.376804 -66.965647 7.794335 -4.931173 9.200019 -10.642703 31.747115 12.083257 0.010804 -30.672481 -4.946449 10.202752 3.269558 -18.378847 9.521187 0.000000 0.000000 0.000000 4.186767 -64.296505 4.842740 -44.348968 1.495858 -2.971189 37.572007 3.165856 -5.773797 17.662511 5.500957 8.158954 6.643196 1.118536 3.474240 0.000000 0.000000 0.000000 1.103945 -59.848085 1.815497 16.396496 -1.625617 2.570646 2.331285 -0.946789 0.354164 -0.813229 -4.914720 0.395838 0.000000 0.000000 0.000000 -4.948821 -0.691164 0.595855 12.670121 38.792852 -14.409573 1.660981 25.619710 -11.150148 0.000000 0.000000 0.000000 -4.175947 -1.531847 0.376090 1.262745 2.170108 -6.348948 6.127729 2.809796 -0.580653 -8.403026 -7.973682 -31.980834 -7.167484 -55.930732 -7.370031 0.000000 0.000000 0.000000 -5.577284 -1.569565 0.627463 9.568730 -4.160989 9.240054 0.637925 0.387338 -3.588892 2.800420 13.543766 56.334256 6.864622 40.164320 7.113239 0.000000 0.000000 0.000000 
5.975439 84.917862 5.380096 0.000000 0.000000 0.000000 8.698383 -67.326787 7.996255 -6.900235 8.104471 -8.765880 32.804992 12.822020 0.173965 -27.138307 -5.315304 10.320862 4.774359 -19.625401 9.955977 0.000000 0.000000 0.000000 4.702792 -64.981177 5.378745 -41.455177 3.011409 -5.733966 38.851322 3.676863 -6.501506 14.946692 5.741420 10.098414 5.737839 1.289856 2.998648 0.000000 0.000000 0.000000 1.961296 -60.569284 2.296526 15.964589 -1.085488 2.433496 2.601536 -0.495502 0.038447 -0.736812 -5.186166 0.409378 0.000000 0.000000 0.000000 -4.707955 -0.358842 0.525058 13.555051 38.053774 -13.843416 1.706345 26.550808 -11.476677 0.000000 0.000000 0.000000 -4.351323 -1.067749 0.080232 1.371761 3.339093 -6.206528 5.662982 2.641032 -0.798271 -7.244310 -6.809134 -33.830221 -7.042480 -58.008646 -7.339304 0.000000 0.000000 0.000000 -5.547329 -1.163565 0.527582 9.203005 -3.524367 9.241588 1.064820 -0.471115 -3.440098 1.542789 14.199061 55.778993 7.808137 41.859887 5.795114 0.000000 0.000000 0.000000 
6.487741 85.112274 2.576923 0.000000 0.000000 0.000000 9.309332 -67.297116 8.602594 -9.063521 6.791909 -6.811963 34.797778 13.583253 -0.239186 -24.682401 -5.790044 10.316729 6.281974 -20.659287 9.572934 0.000000 0.000000 0.000000 5.161966 -65.065243 6.018730 -38.215609 3.990908 -8.280567 38.964419 4.270585 -7.249045 11.957243 5.587485 11.997323 5.243920 1.491771 2.727500 0.000000 0.000000 0.000000 3.071074 -60.969820 3.175578 15.527327 -0.704939 2.264720 2.999825 -0.143163 -0.205480 -0.563476 -4.868022 0.464079 0.000000 0.000000 0.000000 -4.564615 -0.147350 0.453713 13.758723 37.151168 -13.069096 1.906827 27.509762 -11.498355 0.000000 0.000000 0.000000 -4.518198 -0.702495 -0.177953 1.394535 4.613750 -5.814722 5.247111 2.087426 -1.173070 -5.837385 -5.692846 -36.134501 -6.120478 -58.918025 -6.603694 0.000000 0.000000 0.000000 -5.490571 -0.846645 0.482632 8.897288 -2.999615 8.594041 1.109858 -1.012057 -3.311988 1.128851 14.948414 55.276468 8.285511 42.854656 4.346328 0.000000 0.000000 0.000000 
6.870518 84.891594 0.017090 0.000000 0.000000 0.000000 10.083311 -67.054125 9.471398 -10.696975 5.464424 -5.094417 37.107841 14.115266 -0.849109 -23.543870 -6.310486 9.524663 6.615082 -21.608825 9.013899 0.000000 0.000000 0.000000 5.397339 -64.547145 6.479132 -35.063633 4.310827 -10.421032 37.856491 4.759727 -7.788586 9.323106 4.831668 13.282841 5.121675 1.706843 2.827483 0.000000 0.000000 0.000000 3.899468 -61.129606 3.956607 15.172642 -0.470150 2.128437 3.425072 0.149781 -0.449646 -0.410879 -4.229533 0.548965 0.000000 0.000000 0.000000 -4.511422 -0.001036 0.293189 13.319821 36.121804 -12.247657 2.287939 28.268570 -11.161484 0.000000 0.000000 0.000000 -4.651078 -0.410411 -0.434880 1.311421 5.787952 -5.353775 5.087582 1.306038 -1.224549 -4.078297 -4.780510 -38.454440 -4.682267 -58.917048 -5.410827 0.000000 0.000000 0.000000 -5.389152 -0.562308 0.384762 8.643637 -2.486439 7.577099 0.658698 -1.109063 -3.152961 1.681731 15.271509 54.641879 8.506814 43.766394 2.750664 0.000000 0.000000 0.000000 
